<?xml version="1.0" encoding="UTF-8"?>
<svg version="1.1" xmlns="http://www.w3.org/2000/svg" width="1624" height="1625">
<path d="M0 0 C2.48695054 0.05348281 3.88379953 0.12939977 6.125 1.25 C7.77153112 4.54306224 7.71328712 7.70009462 7.125 11.25 C5.58868599 14.76019986 3.54889174 17.87270925 1.4375 21.0625 C0.85387695 21.97177246 0.27025391 22.88104492 -0.33105469 23.81787109 C-2.15692028 26.64380194 -4.01134822 29.44887192 -5.875 32.25 C-6.45137207 33.12350098 -7.02774414 33.99700195 -7.62158203 34.89697266 C-13.93139508 44.42804435 -20.45745125 53.54784783 -27.875 62.25 C-29.31414325 64.04034701 -30.75159964 65.83205107 -32.1875 67.625 C-36.61203683 73.04137696 -41.32845437 78.14762642 -46.09765625 83.2578125 C-48.25577719 85.57240262 -50.3667381 87.91895746 -52.4375 90.3125 C-60.01894616 99.03116308 -67.90754253 107.37996093 -76.0625 115.5625 C-76.81055908 116.31515137 -77.55861816 117.06780273 -78.3293457 117.84326172 C-83.01523187 122.51622771 -87.83388479 126.96341903 -92.875 131.25 C-93.41020264 131.70689209 -93.94540527 132.16378418 -94.49682617 132.63452148 C-95.95007532 133.86778879 -97.41239129 135.09034735 -98.875 136.3125 C-100.298125 137.50552734 -100.298125 137.50552734 -101.75 138.72265625 C-111.07705688 146.37111584 -121.0800504 153.22187121 -130.875 160.25 C-131.60493164 160.77464844 -132.33486328 161.29929688 -133.08691406 161.83984375 C-143.48215337 169.29822631 -154.0386107 176.44702558 -164.875 183.25 C-165.51679199 183.65347656 -166.15858398 184.05695313 -166.81982422 184.47265625 C-175.42445614 189.84694839 -184.22814604 194.56528786 -193.34570312 199.00292969 C-196.38379488 200.50086141 -199.40261246 202.03478704 -202.421875 203.5703125 C-203.57776123 204.15586914 -204.73364746 204.74142578 -205.92456055 205.34472656 C-208.22758913 206.5118462 -210.52861252 207.68293294 -212.82739258 208.85839844 C-218.11456518 211.52529819 -223.08706159 213.93795657 -228.875 215.25 C-228.4625 215.69988281 -228.05 216.14976562 -227.625 216.61328125 C-222.60497119 222.20478656 -218.2323502 228.13552667 -213.875 234.25 C-213.08364138 235.32410481 -212.29062129 236.39698715 -211.49609375 237.46875 C-200.52502967 252.36238079 -191.8357917 268.10938128 -184.875 285.25 C-184.55402344 286.03197754 -184.23304688 286.81395508 -183.90234375 287.61962891 C-173.85969576 312.76301589 -170.67453817 341.46564253 -170.74462891 368.35083008 C-170.75005731 370.83876447 -170.74461868 373.32652373 -170.73828125 375.81445312 C-170.73894091 377.3984379 -170.74021975 378.98242256 -170.7421875 380.56640625 C-170.74016327 381.30903214 -170.73813904 382.05165802 -170.73605347 382.81678772 C-170.75999381 388.01998762 -170.75999381 388.01998762 -171.875 390.25 C-172.10717847 391.92468796 -172.2920568 393.60604627 -172.453125 395.2890625 C-174.46677848 415.09814912 -177.95657923 434.10210011 -183.4375 453.25 C-183.71819336 454.23500488 -183.99888672 455.22000977 -184.28808594 456.23486328 C-185.76230717 461.19259568 -187.46894271 465.70072223 -189.88598633 470.26953125 C-191.73055383 473.96321963 -193.02927573 477.87432352 -194.4375 481.75 C-203.58629571 506.19175292 -214.93875991 530.23762011 -230.62109375 551.20703125 C-232.77791101 554.11892146 -234.77514278 557.08769393 -236.75 560.125 C-244.12738727 571.29561879 -252.41406212 581.88486032 -260.875 592.25 C-261.63103516 593.2090625 -261.63103516 593.2090625 -262.40234375 594.1875 C-263.51405025 595.57954987 -264.68711395 596.92236265 -265.875 598.25 C-266.535 598.25 -267.195 598.25 -267.875 598.25 C-268.14562256 598.84135742 -268.41624512 599.43271484 -268.69506836 600.04199219 C-269.86333099 602.22816377 -271.07069641 603.77014427 -272.75390625 605.578125 C-273.33712646 606.20525391 -273.92034668 606.83238281 -274.52124023 607.47851562 C-275.46978882 608.47915039 -275.46978882 608.47915039 -276.4375 609.5 C-277.09500244 610.19802734 -277.75250488 610.89605469 -278.42993164 611.61523438 C-284.68162826 618.17911182 -291.24677757 624.38120047 -297.90234375 630.53125 C-301.37467115 633.74773525 -304.72677651 637.06868352 -308.04833984 640.44018555 C-311.1810523 643.54400771 -314.51864251 646.39256051 -317.875 649.25 C-319.3290625 650.50296875 -319.3290625 650.50296875 -320.8125 651.78125 C-330.82863446 660.37678645 -340.96489204 668.59897505 -352.2109375 675.55078125 C-354.93542413 677.28854032 -357.52634957 679.14225831 -360.125 681.0625 C-372.64902971 690.25266828 -385.6958662 698.20415122 -399.25146484 705.78173828 C-401.78332281 707.19869285 -404.30830464 708.62721888 -406.83203125 710.05859375 C-408.38770352 710.93545903 -409.9436783 711.81178789 -411.5 712.6875 C-412.52734253 713.27047852 -412.52734253 713.27047852 -413.57543945 713.86523438 C-419.19166674 716.99987286 -424.99430043 719.65093475 -430.875 722.25 C-430.62854736 722.98299316 -430.38209473 723.71598633 -430.12817383 724.47119141 C-423.11645009 745.45236335 -416.51573679 766.33247706 -415.32421875 788.56640625 C-415.26146004 789.72795982 -415.26146004 789.72795982 -415.19743347 790.91297913 C-412.76172297 839.47425125 -416.45874201 901.70999076 -444.875 943.25 C-446.12143733 945.65578733 -447.32538569 948.06039295 -448.5 950.5 C-459.78521978 973.34627101 -473.02633048 995.38010734 -490.3125 1014.25 C-490.97121094 1014.971875 -491.62992188 1015.69375 -492.30859375 1016.4375 C-493.15550781 1017.365625 -494.00242187 1018.29375 -494.875 1019.25 C-495.42897461 1019.88413818 -495.98294922 1020.51827637 -496.55371094 1021.17163086 C-503.6764286 1029.25569164 -511.28689804 1036.84799781 -518.90332031 1044.46362305 C-521.24313187 1046.80562544 -523.57480818 1049.15552856 -525.90625 1051.50585938 C-532.88742331 1058.51266462 -539.80558045 1065.38851296 -547.62451172 1071.46704102 C-550.07502498 1073.40847065 -552.34567134 1075.48635527 -554.625 1077.625 C-560.95649492 1083.39190302 -567.90284272 1088.29740523 -574.875 1093.25 C-576.17244141 1094.17425781 -576.17244141 1094.17425781 -577.49609375 1095.1171875 C-581.12489112 1097.67509189 -584.78390289 1100.18834628 -588.4453125 1102.69921875 C-589.09177734 1103.14265625 -589.73824219 1103.58609375 -590.40429688 1104.04296875 C-591.76988656 1104.97959799 -593.13577646 1105.91578965 -594.50195312 1106.8515625 C-598.7614691 1109.77576975 -602.98749734 1112.74238035 -607.19458008 1115.74145508 C-615.52567568 1121.6755 -623.99619772 1127.33657307 -632.62890625 1132.82177734 C-635.01680577 1134.34016997 -637.3990002 1135.86729222 -639.78125 1137.39453125 C-641.43717748 1138.45102651 -643.09342072 1139.50702705 -644.75 1140.5625 C-645.49813965 1141.04203125 -646.2462793 1141.5215625 -647.01708984 1142.015625 C-651.91916197 1145.12231456 -656.9271078 1147.94702829 -662.03613281 1150.69848633 C-666.85920208 1153.33441729 -671.57816872 1156.14634104 -676.3125 1158.9375 C-684.5670917 1163.78114553 -692.87472589 1168.49314236 -701.28588867 1173.05859375 C-707.9826966 1176.71249075 -714.55493707 1180.56125525 -721.125 1184.4375 C-727.57364752 1188.23620541 -734.0020529 1191.94654406 -740.75 1195.1875 C-759.6072085 1204.29012841 -777.45075322 1215.71665157 -795.41015625 1226.46411133 C-802.68039178 1230.80761695 -809.99534551 1235.05219895 -817.39712524 1239.16830444 C-823.68068618 1242.66837911 -829.77674144 1246.43589482 -835.875 1250.25 C-837.09435755 1250.9946281 -838.31443715 1251.73807484 -839.53515625 1252.48046875 C-856.64401366 1262.94106502 -872.77030042 1274.81557268 -888.85986328 1286.76220703 C-891.51353235 1288.72143399 -894.19343152 1290.64166017 -896.875 1292.5625 C-910.19861001 1302.24309529 -922.6844998 1313.27495364 -934.76196289 1324.46313477 C-937.37967893 1326.88782331 -940.02809603 1329.25580172 -942.75 1331.5625 C-951.76107006 1339.38342873 -960.23145283 1348.09472906 -967.875 1357.25 C-969.17081924 1358.77389958 -970.46666779 1360.29777431 -971.76293945 1361.82128906 C-973.19690217 1363.51107958 -974.62449951 1365.20606729 -976.05078125 1366.90234375 C-977.82550312 1369.01228413 -979.61460408 1371.10548675 -981.41796875 1373.19140625 C-986.26906359 1378.86001469 -990.70187147 1384.67373785 -994.9375 1390.8125 C-995.41509766 1391.50384033 -995.89269531 1392.19518066 -996.38476562 1392.9074707 C-998.25306871 1395.66049031 -999.81770185 1398.07810554 -1000.875 1401.25 C-1000.01841797 1401.47042969 -1000.01841797 1401.47042969 -999.14453125 1401.6953125 C-994.32835287 1403.02760986 -989.8761612 1404.63888864 -985.375 1406.8125 C-974.51556073 1411.99929385 -963.12629515 1416.00446594 -951.875 1420.25 C-951.875 1421.57 -951.875 1422.89 -951.875 1424.25 C-953.69773144 1425.97437156 -955.41020348 1427.36659049 -957.4375 1428.8125 C-958.30737549 1429.45614502 -958.30737549 1429.45614502 -959.19482422 1430.11279297 C-960.43798981 1431.03001267 -961.68555482 1431.94129365 -962.93701172 1432.84716797 C-964.86394287 1434.24199619 -966.77896277 1435.65179587 -968.69140625 1437.06640625 C-973.37929052 1440.52778471 -978.08810646 1443.9597298 -982.8125 1447.37109375 C-989.94461139 1452.52321491 -996.92023879 1457.86300349 -1003.875 1463.25 C-1010.96628953 1468.73322759 -1018.0821139 1474.17973871 -1025.25 1479.5625 C-1025.90395752 1480.05411621 -1026.55791504 1480.54573242 -1027.23168945 1481.05224609 C-1028.49144793 1481.99606208 -1029.75367221 1482.9365974 -1031.01855469 1483.87353516 C-1032.28566232 1484.81303448 -1033.54650338 1485.76103007 -1034.80175781 1486.71630859 C-1039.53901582 1490.25 -1039.53901582 1490.25 -1042.875 1490.25 C-1042.99373474 1489.64454346 -1043.11246948 1489.03908691 -1043.23480225 1488.4152832 C-1045.70058037 1475.87830141 -1048.24927508 1463.36294507 -1050.953125 1450.875 C-1051.21275024 1449.67496338 -1051.47237549 1448.47492676 -1051.73986816 1447.23852539 C-1052.80579295 1442.31879666 -1053.8741643 1437.39961396 -1054.94726562 1432.48144531 C-1055.7448653 1428.82181434 -1056.53686745 1425.16100666 -1057.328125 1421.5 C-1057.56976379 1420.39994629 -1057.81140259 1419.29989258 -1058.06036377 1418.16650391 C-1059.21274353 1412.81808596 -1060.1569198 1407.55767495 -1060.68154907 1402.11117554 C-1060.91049315 1399.90852331 -1061.32547788 1397.79569884 -1061.84765625 1395.64453125 C-1062.02490234 1394.88849609 -1062.20214844 1394.13246094 -1062.38476562 1393.35351562 C-1062.75614192 1391.81420679 -1063.12855365 1390.27514743 -1063.50195312 1388.73632812 C-1064.49824285 1384.47746324 -1065.09307481 1380.66073889 -1064.875 1376.25 C-1061.94827587 1376.92398878 -1059.21344687 1377.82451432 -1056.41357422 1378.90820312 C-1055.53941864 1379.24525269 -1054.66526306 1379.58230225 -1053.76461792 1379.92956543 C-1052.82909088 1380.29312134 -1051.89356384 1380.65667725 -1050.9296875 1381.03125 C-1049.96346466 1381.40479614 -1048.99724182 1381.77834229 -1048.0017395 1382.16320801 C-1045.96215299 1382.95225219 -1043.92300899 1383.74244104 -1041.88427734 1384.53369141 C-1038.75588292 1385.74771703 -1035.62611337 1386.95814022 -1032.49609375 1388.16796875 C-1030.51554339 1388.93468507 -1028.53507192 1389.70160517 -1026.5546875 1390.46875 C-1025.615112 1390.83230591 -1024.6755365 1391.19586182 -1023.70748901 1391.57043457 C-1022.83963776 1391.90748413 -1021.9717865 1392.24453369 -1021.07763672 1392.59179688 C-1020.31248749 1392.88856323 -1019.54733826 1393.18532959 -1018.75900269 1393.49108887 C-1016.875 1394.25 -1016.875 1394.25 -1014.875 1395.25 C-1014.6584375 1394.59 -1014.441875 1393.93 -1014.21875 1393.25 C-1012.41153799 1389.21529411 -1009.95074231 1385.82938255 -1007.375 1382.25 C-1006.83746094 1381.4981543 -1006.29992187 1380.74630859 -1005.74609375 1379.97167969 C-1004.13146766 1377.72437209 -1002.5062129 1375.48529049 -1000.875 1373.25 C-1000.43027344 1372.63962891 -999.98554687 1372.02925781 -999.52734375 1371.40039062 C-993.60218192 1363.32991158 -987.10729416 1355.97950453 -980.23876953 1348.7109375 C-978.36303296 1346.70155554 -976.56000869 1344.63108136 -974.75 1342.5625 C-970.27041885 1337.56509571 -965.54947102 1332.81531533 -960.8125 1328.0625 C-960.05630371 1327.30171143 -959.30010742 1326.54092285 -958.52099609 1325.75708008 C-954.39479213 1321.64210083 -950.1818859 1317.69851602 -945.76635742 1313.89624023 C-942.78825689 1311.30409723 -939.93432991 1308.58350702 -937.0625 1305.875 C-931.20127664 1300.39732357 -925.17249589 1295.22442036 -918.875 1290.25 C-917.68090536 1289.29828274 -916.4868999 1288.3464536 -915.29296875 1287.39453125 C-914.04997515 1286.40822878 -912.80649087 1285.42254435 -911.5625 1284.4375 C-910.98757813 1283.98101074 -910.41265625 1283.52452148 -909.8203125 1283.05419922 C-906.27685317 1280.26814405 -902.62984942 1277.74856274 -898.875 1275.25 C-895.87602288 1273.06829609 -892.90981127 1270.84283379 -889.9375 1268.625 C-882.44892589 1263.07867643 -874.87146245 1257.75163239 -867.06005859 1252.67236328 C-864.50024127 1251.00605091 -861.9474972 1249.32913353 -859.39453125 1247.65234375 C-850.61498282 1241.8947387 -841.82075348 1236.15919648 -832.9375 1230.5625 C-832.33043213 1230.17707031 -831.72336426 1229.79164062 -831.09790039 1229.39453125 C-828.20651421 1227.58766696 -825.31150421 1225.94650742 -822.23828125 1224.46875 C-816.88274546 1221.84464672 -811.86444604 1218.66585484 -806.79119873 1215.54006958 C-792.64380776 1206.83166517 -778.32221754 1198.45241754 -763.875 1190.25 C-763.01132812 1189.75886719 -762.14765625 1189.26773437 -761.2578125 1188.76171875 C-753.76420689 1184.51215008 -746.24871691 1180.39054238 -738.5 1176.625 C-719.40417578 1167.29023811 -701.20450212 1155.90184104 -682.89868164 1145.11767578 C-676.85069392 1141.55770152 -670.78030382 1138.05837961 -664.625 1134.6875 C-649.00514288 1126.06573301 -634.12476127 1115.96203669 -619.5 1105.76171875 C-615.78959326 1103.17625444 -612.02335355 1100.67979469 -608.25 1098.1875 C-601.54425146 1093.74509523 -594.98447382 1089.12001525 -588.47119141 1084.40087891 C-586.991774 1083.33419588 -585.50215332 1082.28170295 -584.01171875 1081.23046875 C-577.75296709 1076.78322264 -571.89893004 1071.98365132 -566.08203125 1066.984375 C-563.12539377 1064.44680952 -560.10179705 1062.00066361 -557.0625 1059.5625 C-553.13382578 1056.36831705 -549.50410728 1053.03945732 -546.01953125 1049.3671875 C-544.20804675 1047.57880026 -542.36453381 1045.94652502 -540.4296875 1044.296875 C-534.384699 1039.04880526 -528.82289208 1033.30386112 -523.1875 1027.625 C-522.06208543 1026.49455619 -520.93643588 1025.36434628 -519.81054688 1024.234375 C-517.74244253 1022.15817762 -515.67571208 1020.0806341 -513.6105957 1018.00146484 C-511.80460286 1016.18499547 -509.99293086 1014.37415273 -508.17529297 1012.56933594 C-491.99618727 996.25629156 -478.74695499 974.64936775 -468.04003906 954.40771484 C-466.66911144 951.86868334 -465.23769778 949.36778647 -463.8046875 946.86328125 C-451.30507299 924.79070191 -443.04795241 901.80262667 -436.875 877.25 C-436.59640137 876.15059082 -436.31780273 875.05118164 -436.03076172 873.91845703 C-424.66787428 828.53894862 -426.04499352 781.84687907 -441.2265625 737.4609375 C-441.47229004 736.74212402 -441.71801758 736.02331055 -441.97119141 735.28271484 C-442.9905657 732.99008644 -444.306686 731.19984023 -445.875 729.25 C-446.55151611 729.56114746 -447.22803223 729.87229492 -447.92504883 730.19287109 C-460.91183074 736.13710234 -473.92005963 741.8364141 -487.3125 746.8125 C-488.39313721 747.21710449 -489.47377441 747.62170898 -490.5871582 748.03857422 C-496.58409212 750.22711444 -502.55138535 751.9966233 -508.75952148 753.47436523 C-513.343488 754.61559724 -517.84837465 755.99801314 -522.37133789 757.3581543 C-547.14033165 764.76936176 -571.73696702 770.23440977 -597.375 773.5625 C-598.324888 773.68587738 -599.274776 773.80925476 -600.25344849 773.93637085 C-606.78696253 774.77358011 -613.32631891 775.54131413 -619.875 776.25 C-621.27434784 776.40146988 -621.27434784 776.40146988 -622.70196533 776.55599976 C-636.54838673 778.01034574 -650.26474753 778.54145772 -664.18408203 778.45581055 C-667.26994034 778.43738091 -670.35549811 778.43530331 -673.44140625 778.43554688 C-731.51411423 778.33542202 -731.51411423 778.33542202 -753.1875 758.08984375 C-763.10281926 747.74260718 -767.25365529 735.38953326 -767.125 721.3125 C-767.13273437 720.47009766 -767.14046875 719.62769531 -767.1484375 718.75976562 C-767.11958056 709.38847594 -764.87609642 701.49757844 -761.1875 692.9375 C-760.83373291 692.11008301 -760.47996582 691.28266602 -760.11547852 690.43017578 C-745.41675611 656.72136862 -716.09927061 634.41895663 -682.625 621 C-658.81197608 611.84468088 -632.33794815 607.80723347 -606.875 607.75 C-606.15487732 607.74732117 -605.43475464 607.74464233 -604.69281006 607.74188232 C-588.30802797 607.75487368 -572.7663926 610.41873709 -556.875 614.25 C-555.89869629 614.48493164 -554.92239258 614.71986328 -553.91650391 614.96191406 C-543.81004904 617.49359483 -534.26200039 621.16483916 -524.6875 625.25 C-523.74253662 625.6531543 -522.79757324 626.05630859 -521.82397461 626.47167969 C-515.71918436 629.17863859 -510.33051982 632.41533764 -504.875 636.25 C-503.86953125 636.90484375 -502.8640625 637.5596875 -501.828125 638.234375 C-484.44817449 649.58659701 -468.47535757 662.64263216 -455.875 679.25 C-455.14023437 680.1575 -454.40546875 681.065 -453.6484375 682 C-447.192053 690.1647749 -442.52554648 698.97089544 -437.875 708.25 C-423.81746318 703.51909819 -411.47418215 695.95825102 -398.875 688.25 C-397.89418457 687.65026367 -396.91336914 687.05052734 -395.90283203 686.43261719 C-385.04607314 679.75069079 -374.57293936 672.7625589 -364.47265625 664.984375 C-361.14224048 662.42539137 -357.72531633 660.04619845 -354.25 657.6875 C-344.19796642 650.79538787 -334.72696643 643.30177333 -325.86328125 634.9296875 C-323.2973162 632.55524767 -320.57377227 630.40818082 -317.83984375 628.23046875 C-311.76732855 623.28994432 -306.24830619 617.89314492 -300.74853516 612.3293457 C-299.11808232 610.6805043 -297.4796362 609.03993899 -295.83984375 607.40039062 C-290.31225623 601.85441612 -284.93559981 596.22972584 -279.875 590.25 C-278.90223647 589.131772 -277.92830749 588.01455661 -276.953125 586.8984375 C-267.12747194 575.55561319 -257.88952714 563.88145136 -249.26171875 551.6015625 C-247.53822627 549.15137083 -245.7465208 546.76540796 -243.92578125 544.38671875 C-227.62090956 522.71238162 -215.85063596 496.83763903 -205.90356445 471.7644043 C-204.93510809 469.39693882 -203.89141997 467.08229755 -202.81640625 464.76171875 C-189.43813549 434.95746466 -183.02571339 395.69410193 -184.875 363.25 C-184.93300781 362.00766602 -184.93300781 362.00766602 -184.9921875 360.74023438 C-186.60418876 328.80838582 -193.86731446 299.49604394 -208.875 271.25 C-209.59236328 269.83074219 -209.59236328 269.83074219 -210.32421875 268.3828125 C-217.04456985 255.40425478 -230.43056711 229.99787661 -243.6171875 223.375 C-247.12116783 223.18100801 -250.0119284 224.61872081 -253.1875 225.9375 C-259.54683321 228.44878331 -265.85047257 230.39481598 -272.48828125 232.06640625 C-276.93602514 233.22418175 -281.29617257 234.62992443 -285.67407227 236.02539062 C-296.6327804 239.50804134 -307.61414028 242.53864107 -318.8125 245.125 C-320.66790405 245.55389526 -320.66790405 245.55389526 -322.56079102 245.99145508 C-332.32045064 248.20132702 -341.93737807 250.16958874 -351.91845703 250.97705078 C-356.44672305 251.39510209 -360.94009091 252.04189742 -365.44482422 252.65917969 C-440.34825579 262.89090712 -440.34825579 262.89090712 -463.8046875 245.9921875 C-472.38315624 238.77332513 -474.8953213 230.76354588 -476.15234375 219.83984375 C-476.89242015 203.52855985 -467.91409136 189.09174635 -457.37109375 177.49609375 C-451.41991826 171.27402549 -445.38641521 166.44139174 -437.875 162.25 C-437.11058594 161.80140625 -436.34617187 161.3528125 -435.55859375 160.890625 C-417.1456392 150.79621337 -393.88701479 148.04745515 -373.25 148.0625 C-372.10297607 148.06330566 -370.95595215 148.06411133 -369.77416992 148.06494141 C-358.74261156 148.14438919 -348.50214128 149.15184091 -337.875 152.25 C-336.50942605 152.5924375 -335.1421292 152.92805698 -333.7734375 153.2578125 C-316.82679276 157.39669012 -301.06122274 163.3532293 -285.5625 171.375 C-284.61407227 171.86556885 -283.66564453 172.3561377 -282.68847656 172.86157227 C-277.00279195 175.88937668 -271.92253043 179.26171759 -266.875 183.25 C-265.48252656 184.30220799 -264.08794805 185.35163526 -262.69140625 186.3984375 C-255.16176147 192.09817208 -247.79208195 197.81096287 -240.875 204.25 C-233.34449709 201.36728637 -226.07040036 198.07076584 -218.8125 194.5625 C-217.1725708 193.77238525 -217.1725708 193.77238525 -215.49951172 192.96630859 C-207.09257552 188.89190247 -198.79636939 184.64605775 -190.59130859 180.18017578 C-189.05296505 179.34645048 -187.50554513 178.52952374 -185.95703125 177.71484375 C-162.1483881 165.08958099 -139.88806059 149.04480114 -118.875 132.25 C-117.53115234 131.18265625 -117.53115234 131.18265625 -116.16015625 130.09375 C-114.57769262 128.83377896 -112.99909553 127.56892671 -111.42553711 126.29785156 C-109.81888547 125.00785502 -108.20235823 123.72997204 -106.57226562 122.46972656 C-98.3590428 115.99428965 -91.05696221 108.70288306 -83.70288086 101.28369141 C-81.55444795 99.11687907 -79.39799688 96.9582993 -77.24023438 94.80078125 C-75.8510883 93.40672236 -74.46240018 92.01220696 -73.07421875 90.6171875 C-72.43973312 89.98158905 -71.8052475 89.3459906 -71.15153503 88.69113159 C-67.67018819 85.17305538 -64.3580438 81.57302188 -61.18464661 77.77401733 C-59.20827337 75.4741396 -57.02522376 73.38644028 -54.875 71.25 C-46.86498983 62.26441167 -39.52289881 52.7682758 -32.29980469 43.14648438 C-31.1050031 41.55614532 -29.90121574 39.97256258 -28.6953125 38.390625 C-20.27735892 27.14340071 -12.9658782 14.97722006 -5.86328125 2.8671875 C-4.005353 -0.17305873 -4.11929321 0.26576085 0 0 Z M-447.875 188.25 C-455.50193858 197.40500712 -462.35008179 207.55252731 -462.1484375 219.8125 C-461.37908525 226.67072579 -458.18298775 231.62692055 -452.94921875 235.9609375 C-428.94929359 250.87614523 -392.52347675 241.95477695 -366.17260742 238.76196289 C-363.30226931 238.41538325 -360.430692 238.09043314 -357.5559082 237.78295898 C-347.9730365 236.74407203 -338.61740434 235.22083249 -329.1875 233.1875 C-328.14373703 232.96565033 -328.14373703 232.96565033 -327.07888794 232.73931885 C-311.72735731 229.45453051 -296.83168949 224.99919211 -281.875 220.25 C-280.17251314 219.7218967 -278.46946337 219.19560147 -276.765625 218.671875 C-270.1051435 216.62095887 -263.47462691 214.48915913 -256.875 212.25 C-256.53099021 209.28449573 -256.53099021 209.28449573 -258.23046875 207.8203125 C-258.83503906 207.34335937 -259.43960938 206.86640625 -260.0625 206.375 C-262.26566979 204.61822409 -264.24031814 202.87305532 -266.20703125 200.84375 C-285.28748075 182.29408899 -314.60580293 171.67874717 -340.05078125 165.94140625 C-342.875 165.25 -342.875 165.25 -343.875 164.25 C-378.06862649 157.60528109 -422.78034615 161.71652957 -447.875 188.25 Z M-643.875 625.25 C-645.39564038 625.54396863 -646.91647693 625.83692414 -648.4375 626.12890625 C-683.78785246 633.17709265 -717.37162864 651.02273277 -738.8125 680.6875 C-741.9458466 685.49433853 -744.70138155 690.45838371 -747.3125 695.5625 C-747.80834595 696.53110962 -747.80834595 696.53110962 -748.31420898 697.51928711 C-753.85633282 708.85762744 -755.28253754 723.12971763 -751.375 735.25 C-746.4372695 746.46742259 -738.09758227 753.81674903 -726.890625 758.49609375 C-687.57457068 772.39930985 -638.11588046 765.38648252 -597.8203125 759.140625 C-593.04860027 758.40283913 -588.3072653 757.87713062 -583.5 757.4375 C-562.52107049 755.03042203 -541.95695026 748.60865704 -521.84765625 742.36328125 C-517.04360597 740.87381884 -512.22450546 739.54950379 -507.3515625 738.3046875 C-500.07221292 736.38971289 -493.16342394 733.87365612 -486.1875 731.0625 C-484.99157227 730.58707764 -483.79564453 730.11165527 -482.56347656 729.62182617 C-472.19619484 725.46285851 -461.99649481 720.97258686 -451.875 716.25 C-451.875 704.98889875 -463.89028947 692.37425962 -470.875 684.25 C-471.5868042 683.41855469 -471.5868042 683.41855469 -472.31298828 682.5703125 C-480.49528665 673.12088084 -489.57319719 664.07279568 -500.0390625 657.16015625 C-502.875 655.25 -502.875 655.25 -504.79296875 653.26953125 C-507.58944513 650.55700163 -510.79767414 648.7961746 -514.1875 646.9375 C-515.25363525 646.3499292 -515.25363525 646.3499292 -516.34130859 645.75048828 C-518.51127459 644.56805172 -520.68990312 643.40421035 -522.875 642.25 C-523.48811035 641.92563965 -524.1012207 641.6012793 -524.73291016 641.26708984 C-535.93494658 635.44950931 -547.74258016 631.62534326 -559.875 628.25 C-560.91253418 627.95641602 -561.95006836 627.66283203 -563.01904297 627.36035156 C-589.19227958 620.1923143 -617.30300245 619.61187461 -643.875 625.25 Z " fill="#000000" transform="translate(1340.875,67.75)"/>
</svg>
