<svg xmlns="http://www.w3.org/2000/svg" viewBox="0 0 500 500"><g id="freepik--Device--inject-157"><rect x="390.59" y="129.32" width="3.1" height="16.01" rx="0.69" transform="translate(529.46 -254.81) rotate(90)" style="fill:#263238"></rect><rect x="187.62" y="176.18" width="272.06" height="193.8" rx="6.63" transform="translate(596.74 -50.57) rotate(90)" style="fill:#263238"></rect><rect x="185.12" y="178.68" width="272.06" height="188.8" rx="6.63" transform="translate(594.24 -48.07) rotate(90)" style="fill:#fff;opacity:0.2"></rect><circle cx="317.66" cy="142.09" r="1.78" style="fill:#fff;isolation:isolate;opacity:0.6000000000000001"></circle><circle cx="325.54" cy="142.09" r="0.89" style="fill:#fff;isolation:isolate;opacity:0.6000000000000001"></circle><circle cx="321.15" cy="399.38" r="5.46" style="fill:#fff"></circle><rect x="199.73" y="180.04" width="242.84" height="177.9" transform="translate(590.14 -52.16) rotate(90)" style="fill:#2463EB"></rect><rect x="203.51" y="183.82" width="235.28" height="177.9" transform="translate(593.92 -48.39) rotate(90)" style="fill:#fff;isolation:isolate;opacity:0.8"></rect><circle cx="394.01" cy="151.32" r="1.68" style="fill:#fff;isolation:isolate;opacity:0.6000000000000001"></circle><circle cx="399.81" cy="151.32" r="1.68" style="fill:#fff;isolation:isolate;opacity:0.6000000000000001"></circle><circle cx="405.61" cy="151.32" r="1.68" style="fill:#fff;isolation:isolate;opacity:0.6000000000000001"></circle><rect x="232.2" y="155.13" width="177.9" height="10.76" style="isolation:isolate;opacity:0.2"></rect><path d="M404.72,163.08H349.66a2.57,2.57,0,0,1-2.57-2.57h0a2.57,2.57,0,0,1,2.57-2.57h55.06a2.57,2.57,0,0,1,2.57,2.57h0A2.57,2.57,0,0,1,404.72,163.08Z" style="fill:#fff;isolation:isolate;opacity:0.6000000000000001"></path><path d="M296.17,182a4.62,4.62,0,0,1,4.84-4.67,4.51,4.51,0,0,1,3.47,1.43l-.84.82a3.51,3.51,0,1,0,0,4.84l.84.82a4.52,4.52,0,0,1-3.48,1.44A4.62,4.62,0,0,1,296.17,182Z" style="fill:#263238"></path><path d="M314.21,177.48v9.13H312.9v-4.07h-5.24v4.07h-1.31v-9.13h1.31v3.93h5.24v-3.93Z" style="fill:#263238"></path><path d="M322.77,184.33h-4.85l-1,2.28h-1.34l4.14-9.13H321l4.15,9.13h-1.37Zm-.45-1.05-2-4.47-2,4.47Z" style="fill:#263238"></path><path d="M333.88,180.66c0,2-1.44,3.19-3.81,3.19h-2.26v2.76h-1.3v-9.13h3.56C332.44,177.48,333.88,178.68,333.88,180.66Zm-1.31,0c0-1.3-.87-2-2.54-2h-2.22v4.1H330C331.7,182.71,332.57,182,332.57,180.66Z" style="fill:#263238"></path><path d="M337.33,178.61H334.2v-1.13h7.55v1.13h-3.13v8h-1.29Z" style="fill:#263238"></path><path d="M349.8,185.48v1.13h-6.62v-9.13h6.44v1.13h-5.14v2.81h4.58v1.11h-4.58v2.95Z" style="fill:#263238"></path><path d="M358,186.61l-2-2.8-.58,0h-2.25v2.78h-1.31v-9.13h3.56c2.38,0,3.81,1.2,3.81,3.18a2.89,2.89,0,0,1-2,2.89l2.17,3.06Zm0-6c0-1.3-.88-2-2.55-2h-2.21v4.11h2.21C357.11,182.72,358,182,358,180.66Z" style="fill:#263238"></path><polygon points="363.12 165.89 363.12 212.92 377.54 198.51 391.22 212.19 391.22 165.89 363.12 165.89" style="fill:#2463EB"></polygon><path d="M382.15,187.08c0,2.44-1.8,4.42-5.47,4.42a8.22,8.22,0,0,1-5.31-1.75l.95-1.64a6.5,6.5,0,0,0,4.36,1.55c2.17,0,3.41-1,3.41-2.56s-1.1-2.52-3.58-2.52h-1.16v-1.45l3.64-4.46h-7v-1.8h9.54v1.41L377.79,183C380.68,183.22,382.15,184.85,382.15,187.08Z" style="fill:#fff"></path><path d="M260,238.14c0,3.2-2.31,5.13-6.13,5.13h-3.63v4.45h-2.1V233h5.73C257.69,233,260,235,260,238.14Zm-2.1,0c0-2.1-1.4-3.29-4.09-3.29h-3.57v6.59h3.57C256.5,241.44,257.9,240.24,257.9,238.14Z" style="fill:#263238"></path><path d="M392.41,234.27h-129a.5.5,0,0,1,0-1h129a.5.5,0,0,1,0,1Z"></path><path d="M392.41,239.46h-129a.5.5,0,0,1-.5-.5.5.5,0,0,1,.5-.5h129a.51.51,0,0,1,.5.5A.5.5,0,0,1,392.41,239.46Z"></path><path d="M392.41,244.65h-129a.5.5,0,0,1-.5-.5.5.5,0,0,1,.5-.5h129a.51.51,0,0,1,.5.5A.5.5,0,0,1,392.41,244.65Z"></path><path d="M392.41,249.84h-129a.5.5,0,0,1-.5-.5.5.5,0,0,1,.5-.5h129a.51.51,0,0,1,.5.5A.5.5,0,0,1,392.41,249.84Z"></path><path d="M392.41,255h-144a.5.5,0,0,1-.5-.5.5.5,0,0,1,.5-.5h144a.5.5,0,0,1,.5.5A.51.51,0,0,1,392.41,255Z"></path><path d="M392.41,260.23h-144a.5.5,0,0,1-.5-.5.5.5,0,0,1,.5-.5h144a.5.5,0,0,1,.5.5A.51.51,0,0,1,392.41,260.23Z"></path><path d="M392.41,265.42h-144a.5.5,0,0,1-.5-.5.5.5,0,0,1,.5-.5h144a.5.5,0,0,1,.5.5A.51.51,0,0,1,392.41,265.42Z"></path><path d="M392.41,270.61h-144a.5.5,0,1,1,0-1h144a.5.5,0,0,1,0,1Z"></path><path d="M312.4,275.8H248.45a.5.5,0,0,1,0-1H312.4a.5.5,0,0,1,0,1Z"></path><path d="M392.41,287.27h-128a.5.5,0,0,1-.5-.5.5.5,0,0,1,.5-.5h128a.51.51,0,0,1,.5.5A.5.5,0,0,1,392.41,287.27Z"></path><path d="M392.41,292.46h-144a.5.5,0,0,1-.5-.5.5.5,0,0,1,.5-.5h144a.51.51,0,0,1,.5.5A.5.5,0,0,1,392.41,292.46Z"></path><path d="M392.41,297.66h-144a.5.5,0,0,1-.5-.5.5.5,0,0,1,.5-.5h144a.5.5,0,0,1,.5.5A.51.51,0,0,1,392.41,297.66Z"></path><path d="M392.41,302.85h-144a.5.5,0,0,1-.5-.5.5.5,0,0,1,.5-.5h144a.5.5,0,0,1,.5.5A.51.51,0,0,1,392.41,302.85Z"></path><path d="M392.41,308h-144a.5.5,0,0,1,0-1h144a.5.5,0,0,1,0,1Z"></path><path d="M392.41,313.23h-144a.5.5,0,0,1,0-1h144a.5.5,0,1,1,0,1Z"></path><path d="M392.41,318.42h-144a.5.5,0,0,1,0-1h144a.5.5,0,0,1,0,1Z"></path><path d="M392.41,323.61h-144a.5.5,0,0,1-.5-.5.5.5,0,0,1,.5-.5h144a.51.51,0,0,1,.5.5A.5.5,0,0,1,392.41,323.61Z"></path><path d="M362.4,328.8H248.45a.5.5,0,0,1-.5-.5.5.5,0,0,1,.5-.5h114a.5.5,0,0,1,.5.5A.5.5,0,0,1,362.4,328.8Z"></path><path d="M392.41,341.28h-128a.5.5,0,0,1-.5-.5.5.5,0,0,1,.5-.5h128a.5.5,0,0,1,.5.5A.51.51,0,0,1,392.41,341.28Z"></path><path d="M392.41,346.47h-144a.5.5,0,0,1,0-1h144a.5.5,0,1,1,0,1Z"></path><path d="M392.41,351.66h-144a.5.5,0,0,1,0-1h144a.5.5,0,0,1,0,1Z"></path><path d="M352.4,356.85H248.45a.5.5,0,1,1,0-1h104a.5.5,0,0,1,0,1Z"></path><path d="M388.1,372.05v.61l-2.54,5.69h-1l2.49-5.52h-2.88V374h-.86v-1.9Z" style="fill:#263238"></path><path d="M393.13,376.49c0,1.07-.78,1.93-2.38,1.93a3.6,3.6,0,0,1-2.32-.77l.42-.71a2.81,2.81,0,0,0,1.9.68c.94,0,1.48-.43,1.48-1.12s-.47-1.1-1.55-1.1h-.51v-.63l1.59-1.94h-3v-.78h4.16v.61l-1.65,2C392.49,374.81,393.13,375.52,393.13,376.49Z" style="fill:#263238"></path><rect x="405.61" y="165.89" width="4.5" height="224.52" style="isolation:isolate;opacity:0.4"></rect><rect x="405.61" y="203.93" width="4.5" height="26.9" rx="2.25" style="fill:#fff;isolation:isolate;opacity:0.30000000000000004"></rect><rect x="417.9" y="194.09" width="3.43" height="26.64" rx="1.07" style="fill:#263238"></rect><rect x="417.9" y="164.09" width="3.43" height="26.64" rx="1.07" style="fill:#263238"></rect><rect x="417.9" y="194.09" width="3.43" height="26.64" rx="1.07" style="fill:#fff;opacity:0.2"></rect><rect x="417.9" y="164.09" width="3.43" height="26.64" rx="1.07" style="fill:#fff;opacity:0.2"></rect></g><g id="freepik--Character--inject-157"><path d="M205.33,360.33H100.24l-16-82.7a14.65,14.65,0,0,1,14.38-17.44h75.24a14.65,14.65,0,0,1,14.38,11.87Z" style="fill:#2463EB"></path><path d="M130.09,360.33H100.24l-16-82.7a14.65,14.65,0,0,1,14.38-17.44h0A14.66,14.66,0,0,1,113,272.06Z" style="fill:#2463EB"></path><g style="isolation:isolate;opacity:0.2"><path d="M205.33,360.33H100.24l-16-82.7a14.65,14.65,0,0,1,14.38-17.44h75.24a14.65,14.65,0,0,1,14.38,11.87Z" style="fill:#fff"></path></g><path d="M205.33,360.17H130.09L113,272A14.58,14.58,0,0,0,98.61,260.2h75.24A14.57,14.57,0,0,1,188.23,272Z" style="fill:#fff;isolation:isolate;opacity:0.2"></path><path d="M169.29,250.87s-3.95,15.48-15.19,13.06-11.61-17.17-11.61-17.17-1.73,4.58-1.33,7.08a7.42,7.42,0,0,1-.06-7.08s-3,1.59-3,4.11a4.18,4.18,0,0,1,1.85-5.1s-6.7,1.52-4-7.72,11.35-4.29,10.44,1.18a12.41,12.41,0,0,1,8-3.42C159.31,235.55,174.12,241.54,169.29,250.87Z" style="fill:#263238"></path><path d="M172.29,271c4.93,1.59,10.77,22.47,12.29,23.19s7.59-13.06,7.59-13.06l.71-5.83,2.05-3.64s3.14,4.29,3.15,6.49-3.84,5.11-3.84,5.11-6,20.88-10.22,20.07-11.84-16.89-11.84-16.89Z" style="fill:#e4897b"></path><path d="M223.09,338.75c-.09.15-.18.21-.29.19-3-.54-11,3.83-20.66,8.87l-2.72,1.4c-.31.17-.62.32-.93.47-4.9,2.51-10.1,5-15.25,7.1-6.05,2.46-12,4.28-17.28,4.67-.72.06-1.41.08-2.1.08-23.6,0-15.91-38.95-15.91-38.95l28.19-2.16,3.33,5.73,1.8,3.1,4.07-1.09c2-.55,5.08-1.26,8.58-2l.81-.18c1.17-.25,2.39-.49,3.64-.74,9.2-1.87,19.76-3.67,23.67-3.69C224.84,321.53,224.35,336.9,223.09,338.75Z" style="fill:#e4897b"></path><path d="M194.46,324.65l5.47,27.11s-18.83,15.3-35,9.33-11.11-33.54-11.11-33.54l19.83-12.49,7.91,11.06Z" style="fill:#263238"></path><polygon points="193.53 324.13 199.22 353.47 202.64 350.77 198.08 323.56 193.53 324.13" style="fill:#263238"></polygon><polygon points="202.64 350.77 199.22 353.47 199.03 352.45 198.49 349.68 196.17 337.75 193.92 326.16 193.67 324.85 193.52 324.13 198.09 323.56 198.37 325.24 200.5 338 202.14 347.81 202.64 350.77" style="fill:#fff;isolation:isolate;opacity:0.4"></polygon><path d="M223.09,338.75c-.09.15-.18.21-.29.19-3-.54-11,3.83-20.66,8.87l.5,3-3.42,2.7-.19-1.12a78.21,78.21,0,0,1-11.47,6.53h0l-4.31-2.2L177,353.42l2.56-23.31,3.7,5.13s8.63,2.09,12.9,2.5l1,.09c1.17.1,2.32.16,3.38.17.76,0,1.46,0,2.14-.06C210,337.43,217.93,337.16,223.09,338.75Z" style="isolation:isolate;opacity:0.2"></path><path d="M282.41,354.49l-.26,5.64-.66,0-4.56.23c-12.1.55-42.12,1.61-54.92-.95l-58.82,1.14,12.93-22.65L257,350.53l24.89,3.87Z" style="fill:#e4897b"></path><path d="M292.13,347.76c-.11,2.21-.19,4.2-.28,6-.12,2.52-.21,4.75-.31,6.89-.17,3.72-3.22,1.25-9.82.79-.16,0-.22-.53-.23-1.3,0-1.65.24-4.44.37-5.77l.08-.76a30.27,30.27,0,0,0,2.29-2.38,19.36,19.36,0,0,0,4.13-6.84C289.67,339.8,292.36,342.54,292.13,347.76Z" style="fill:#263238"></path><path d="M192.17,339.65l-6.62,23.13-13-1.25s-37.43,9.89-27-43.77l28.12-2.7,8.2,21.39Z" style="fill:#263238"></path><polygon points="190.75 338.39 183.27 363.15 187.69 363.15 194.24 339.65 190.75 338.39" style="fill:#263238"></polygon><polygon points="190.75 338.39 183.27 363.15 187.69 363.15 194.24 339.65 190.75 338.39" style="fill:#fff;isolation:isolate;opacity:0.4"></polygon><path d="M291.85,353.79c-.12,2.52-.21,4.75-.31,6.89-.17,3.72-3.22,1.25-9.82.79-.16,0-.22-.53-.23-1.3l-4.56.23c-6.23-3.51-15-7.6-20-9.87l24.89,3.87.08-.76a30.27,30.27,0,0,0,2.29-2.38Z" style="isolation:isolate;opacity:0.2"></path><path d="M222.05,321.55c-1,0-.33,17.2.75,17.39,4.59.83,67.2,19.31,67.2,19.31l1.82-5.49S232.31,321.49,222.05,321.55Z" style="fill:#e4897b"></path><path d="M289.26,359.31c-.6-.22,2.34-7.49,2.34-7.49s6.17-3,8.69-7.11,4.36-.73,2.71,4.23l-4.08,12.28C297.75,364.74,295.48,361.54,289.26,359.31Z" style="fill:#263238"></path><polygon points="145.06 317.62 144.78 321.89 173.88 315.72 172.62 311.01 145.06 317.62"></polygon><rect x="153.47" y="314.72" width="1.4" height="7.13" transform="translate(-55.48 33.47) rotate(-10.51)" style="fill:#263238"></rect><rect x="160.7" y="313.49" width="6.19" height="4.69" transform="translate(-65.43 43.74) rotate(-12.7)" style="fill:#fff"></rect><rect x="170.3" y="310.57" width="1.4" height="7.13" transform="translate(-54.41 36.44) rotate(-10.51)" style="fill:#263238"></rect><path d="M172.88,311.84l-27.81,5.92s.09-15.39-2.09-23.89c-.71-2.76-1.6-5.85-2.73-9.44-.48-1.52-1-3.12-1.57-4.84s-1.09-3.3-1.72-5.09a83.22,83.22,0,0,1,11.44-2.76,88.39,88.39,0,0,1,12.37-1.3c5.36-.05,11.52.56,11.52.56s.87.21,1.42,5.89C174.22,282.23,174,292.44,172.88,311.84Z" style="fill:#263238"></path><path d="M172.88,311.84l-27.81,5.92s0-.34,0-.94c-.05-1.37-.09-4-.23-7.08-.21-5-.68-11.37-1.84-15.87-.5-2-1.1-4.11-1.82-6.48l-.37-1.22c-.17-.56-.34-1.14-.53-1.73-.48-1.52-1-3.13-1.58-4.85s-1.09-3.3-1.71-5.08a81.32,81.32,0,0,1,11.43-2.76,88.41,88.41,0,0,1,12.37-1.31c5.36,0,11.52.56,11.52.56s.87.22,1.43,5.89C174.22,282.23,174,292.44,172.88,311.84Z" style="fill:#fff;isolation:isolate;opacity:0.8"></path><path d="M158.5,276.53c-6.8-.87-8.84-3.78-8.84-3.78,2.78-2.61,2.27-6.47,1.56-8.88a13.74,13.74,0,0,0-.83-2.23l8.17,1.53a24.19,24.19,0,0,0-.31,3.45,9.9,9.9,0,0,0,.23,2.53c.55,2.44,2,2.47,2,2.47C161.86,274.31,158.5,276.53,158.5,276.53Z" style="fill:#e4897b"></path><path d="M158.25,266.62a9.9,9.9,0,0,0,.23,2.53c-3.25-.43-5.71-3-7.26-5.28a13.74,13.74,0,0,0-.83-2.23l8.17,1.53A24.19,24.19,0,0,0,158.25,266.62Z" style="isolation:isolate;opacity:0.2"></path><path d="M160.43,240.23c7.52,1.54,9.12,6.06,8.09,13.93-1.29,9.83-4.84,16.27-13.83,12.28C142.49,261,147.93,237.68,160.43,240.23Z" style="fill:#e4897b"></path><path d="M163.74,252.74a16.24,16.24,0,0,0,1.55,3.57,2.11,2.11,0,0,1-2.15.45Z" style="fill:#de5753"></path><path d="M156.75,246.81a.35.35,0,0,1-.28-.13.36.36,0,0,1,.05-.51,4.34,4.34,0,0,1,3.84-.54.37.37,0,0,1,.23.46.36.36,0,0,1-.46.23,3.62,3.62,0,0,0-3.15.41A.4.4,0,0,1,156.75,246.81Z" style="fill:#263238"></path><path d="M168.65,248.37a.36.36,0,0,1-.25-.11,3.29,3.29,0,0,0-2.57-1.13.36.36,0,1,1-.11-.71,3.94,3.94,0,0,1,3.19,1.33.36.36,0,0,1,0,.51A.38.38,0,0,1,168.65,248.37Z" style="fill:#263238"></path><path d="M149.62,251.23s4.77-5.46,5.22-10.34c0,0,16.15-3,13.8,12.23,0,0,4.2-13.14-8.68-16.07s-16.68,16-11.15,23C148.81,260,146.65,254.66,149.62,251.23Z" style="fill:#263238"></path><path d="M150.52,253.07a3.37,3.37,0,0,0-2.94-3.74c-2.38-.22-4.47,4.34,1.1,6.68C149.47,256.34,150.11,255.62,150.52,253.07Z" style="fill:#e4897b"></path><path d="M162.93,259a19.92,19.92,0,0,0-1.77,2.19l-.45-.21c-2-1-2.62-2.12-2.68-3.07a2.79,2.79,0,0,1,.26-1.34,2.94,2.94,0,0,1,.4-.68,10.44,10.44,0,0,0,3.56,2.76C162.66,258.89,162.93,259,162.93,259Z" style="fill:#263238"></path><path d="M162.25,258.66l-.54.64c-1.9-.94-3.11-1.85-3.42-2.72a2.94,2.94,0,0,1,.4-.68A10.44,10.44,0,0,0,162.25,258.66Z" style="fill:#fff"></path><path d="M160.71,261c-2-1-2.62-2.12-2.68-3.07a7.43,7.43,0,0,1,2,1.55A2.67,2.67,0,0,1,160.71,261Z" style="fill:#de5753"></path><path d="M160.15,240.77s-5.55,11.76-13.32,10,7.47-15,7.47-15,13.7-2.2,18.6,5.83-4.26,11.48-4.26,11.48S171.07,243.64,160.15,240.77Z" style="fill:#263238"></path><path d="M152.68,250.47a.25.25,0,0,1-.06-.49c6.52-1.65,7.38-10,7.39-10.13a.25.25,0,0,1,.27-.23.26.26,0,0,1,.23.28c0,.08-.9,8.83-7.77,10.56Z" style="fill:#263238"></path><path d="M159.34,251.6c0,.59-.36,1.06-.76,1.05s-.7-.52-.68-1.11.37-1.07.76-1S159.37,251,159.34,251.6Z" style="fill:#263238"></path><path d="M158.5,250.51l1.32-.46S159.13,251.12,158.5,250.51Z" style="fill:#263238"></path><path d="M166.77,251.77c0,.6-.37,1.07-.77,1s-.7-.51-.67-1.11.36-1.07.76-1.05S166.79,251.17,166.77,251.77Z" style="fill:#263238"></path><path d="M165.92,250.68l1.32-.46S166.55,251.29,165.92,250.68Z" style="fill:#263238"></path><path d="M168.87,292.91h20.27a1.3,1.3,0,0,0,1.21-1l7.15-31.65a.76.76,0,0,0-.77-1H176.46a1.32,1.32,0,0,0-1.21,1l-7.15,31.65A.76.76,0,0,0,168.87,292.91Z" style="fill:#263238"></path><path d="M168.87,292.91h20.27a1.3,1.3,0,0,0,1.21-1l7.15-31.65a.76.76,0,0,0-.77-1H176.46a1.32,1.32,0,0,0-1.21,1l-7.15,31.65A.76.76,0,0,0,168.87,292.91Z" style="fill:#fff;isolation:isolate;opacity:0.2"></path><path d="M184.67,272.44c1.25,0,2,1.28,1.61,2.86s-1.66,2.85-2.9,2.85-2-1.28-1.62-2.85C183,275.3,184.31,274,184.67,272.44Z" style="fill:#fff;isolation:isolate;opacity:0.8"></path><path d="M177.67,264.43h2.15a.49.49,0,0,0,.46-.37l.59-2.6a.3.3,0,0,0-.3-.37h-2.15a.5.5,0,0,0-.46.37l-.59,2.6A.29.29,0,0,0,177.67,264.43Z" style="isolation:isolate;opacity:0.2"></path><path d="M179.47,262.07c-.06.26.08.48.3.48a.6.6,0,0,0,.51-.48c.06-.26-.07-.48-.29-.48A.6.6,0,0,0,179.47,262.07Z" style="fill:#263238"></path><path d="M178.27,262.07c-.06.26.07.48.3.48a.6.6,0,0,0,.51-.48c.06-.26-.07-.48-.3-.48A.6.6,0,0,0,178.27,262.07Z" style="fill:#263238"></path><path d="M179.16,263.45c-.06.27.07.48.3.48a.59.59,0,0,0,.51-.48c.06-.26-.07-.47-.3-.47A.59.59,0,0,0,179.16,263.45Z" style="fill:#263238"></path><path d="M178,263.45c-.06.27.07.48.29.48a.59.59,0,0,0,.52-.48c.06-.26-.08-.47-.3-.47A.59.59,0,0,0,178,263.45Z" style="fill:#263238"></path><path d="M175.26,260.28l-7.16,31.65a.76.76,0,0,0,.77,1h.84a.76.76,0,0,1-.76-1l7.15-31.65a1.31,1.31,0,0,1,1.21-1h-.85A1.3,1.3,0,0,0,175.26,260.28Z" style="isolation:isolate;opacity:0.2"></path><path d="M156.81,296.71a45.54,45.54,0,0,1-12,13c-.21-5-.68-11.37-1.84-15.87-.5-2-1.1-4.11-1.82-6.48l-.37-1.22a7.4,7.4,0,0,1,3.34-2.34,50.29,50.29,0,0,1,1.61,14.8Z" style="isolation:isolate;opacity:0.2"></path><path d="M137,274.51c-2.05.49-1,25.42,2.33,31.33S166.05,288,166.05,288l-1.42-4.3S144.12,297,143.68,296.79s.45-13,.45-13-.8-4.66-3-7.3S137,274.51,137,274.51Z" style="fill:#e4897b"></path><path d="M164.63,283.74l3.89-5.51,3,7.86s-4.32,4.25-6.33,1.84Z" style="fill:#e4897b"></path><polygon points="174.41 276.2 176.04 282.43 171.53 286.09 168.52 278.23 174.41 276.2" style="fill:#e4897b"></polygon><polygon points="266.08 416.11 271.14 416.11 269.43 399.23 262.66 399.23 266.08 416.11" style="fill:#263238"></polygon><polygon points="213.96 416.11 219.02 416.11 217.31 399.23 210.54 399.23 213.96 416.11" style="fill:#263238"></polygon><polygon points="181.42 416.11 176.36 416.11 178.07 399.23 184.84 399.23 181.42 416.11" style="fill:#263238"></polygon><polygon points="233.54 416.11 228.49 416.11 230.19 399.23 236.96 399.23 233.54 416.11" style="fill:#263238"></polygon><polygon points="107.94 416.11 102.88 416.11 104.59 399.23 111.36 399.23 107.94 416.11" style="fill:#263238"></polygon><polygon points="160.06 416.11 155 416.11 156.71 399.23 163.48 399.23 160.06 416.11" style="fill:#263238"></polygon><polygon points="181.42 416.11 176.36 416.11 178.07 399.23 184.84 399.23 181.42 416.11" style="fill:#fff;isolation:isolate;opacity:0.1"></polygon><polygon points="233.54 416.11 228.49 416.11 230.19 399.23 236.96 399.23 233.54 416.11" style="fill:#fff;isolation:isolate;opacity:0.1"></polygon><polygon points="107.94 416.11 102.88 416.11 104.59 399.23 111.36 399.23 107.94 416.11" style="fill:#fff;isolation:isolate;opacity:0.1"></polygon><polygon points="160.06 416.11 155 416.11 156.71 399.23 163.48 399.23 160.06 416.11" style="fill:#fff;isolation:isolate;opacity:0.1"></polygon><polygon points="334.44 416.11 339.49 416.11 337.79 399.23 331.02 399.23 334.44 416.11" style="fill:#263238"></polygon><polygon points="282.31 416.11 287.37 416.11 285.66 399.23 278.9 399.23 282.31 416.11" style="fill:#263238"></polygon><rect x="96.26" y="359.31" width="178.58" height="43.58" rx="7.38" style="fill:#2463EB"></rect><rect x="96.26" y="359.31" width="178.58" height="43.58" rx="7.38" style="fill:#fff;isolation:isolate;opacity:0.2"></rect><rect x="164.62" y="359.31" width="110.22" height="43.58" rx="7.38" style="fill:#fff;isolation:isolate;opacity:0.2"></rect><rect x="168.03" y="359.31" width="178.58" height="43.58" rx="7.38" style="fill:#2463EB"></rect><rect x="168.03" y="359.31" width="178.58" height="43.58" rx="7.38" style="fill:#fff;isolation:isolate;opacity:0.2"></rect><rect x="236.39" y="359.31" width="110.22" height="43.58" rx="7.38" style="fill:#fff;isolation:isolate;opacity:0.2"></rect></g></svg>